<svg width="1080" height="1920" viewBox="0 0 1080 1920" fill="none" xmlns="http://www.w3.org/2000/svg">
  <rect width="1080" height="1920" rx="72" fill="#0F172A"/>
  <rect width="1080" height="1920" rx="72" fill="url(#paint0_radial)"/>
  <rect x="720" y="120" width="220" height="360" rx="48" fill="url(#paint1_linear)" fill-opacity="0.82"/>
  <rect x="768" y="168" width="124" height="264" rx="30" fill="#F8FAFC" fill-opacity="0.15"/>
  <circle cx="824" cy="280" r="138" fill="#E2E8F0" fill-opacity="0.07"/>
  <path d="M0 1458C195.333 1361.33 381.333 1314.67 558 1318C734.667 1321.33 908.667 1399.33 1080 1552V1920H0V1458Z" fill="url(#paint2_linear)"/>
  <circle cx="218" cy="1674" r="152" fill="#38BDF8" fill-opacity="0.18"/>
  <rect x="112" y="1516" width="300" height="216" rx="46" fill="#F8FAFC" fill-opacity="0.08"/>
  <rect x="144" y="1552" width="170" height="18" rx="9" fill="#F8FAFC" fill-opacity="0.2"/>
  <rect x="144" y="1594" width="224" height="18" rx="9" fill="#F8FAFC" fill-opacity="0.14"/>
  <rect x="144" y="1630" width="190" height="18" rx="9" fill="#F8FAFC" fill-opacity="0.12"/>
  <defs>
    <radialGradient id="paint0_radial" cx="0" cy="0" r="1" gradientUnits="userSpaceOnUse" gradientTransform="translate(820 264) rotate(126.87) scale(1652.29 1143.5)">
      <stop stop-color="#1D4ED8"/>
      <stop offset="0.36" stop-color="#1E293B"/>
      <stop offset="1" stop-color="#0F172A"/>
    </radialGradient>
    <linearGradient id="paint1_linear" x1="830" y1="120" x2="830" y2="480" gradientUnits="userSpaceOnUse">
      <stop stop-color="#E2E8F0" stop-opacity="0.22"/>
      <stop offset="1" stop-color="#E2E8F0" stop-opacity="0.04"/>
    </linearGradient>
    <linearGradient id="paint2_linear" x1="540" y1="1318" x2="540" y2="1920" gradientUnits="userSpaceOnUse">
      <stop stop-color="#4F46E5" stop-opacity="0"/>
      <stop offset="1" stop-color="#4F46E5" stop-opacity="0.34"/>
    </linearGradient>
  </defs>
</svg>
